<?xml version="1.0" encoding="utf-8"?>
<!-- Generator: Adobe Illustrator 18.1.0, SVG Export Plug-In . SVG Version: 6.00 Build 0)  -->
<!DOCTYPE svg PUBLIC "-//W3C//DTD SVG 1.1//EN" "http://www.w3.org/Graphics/SVG/1.1/DTD/svg11.dtd">
<svg version="1.1" id="Layer_1" xmlns="http://www.w3.org/2000/svg" xmlns:xlink="http://www.w3.org/1999/xlink" x="0px" y="0px"
	 width="300px" height="100px" viewBox="0 0 300 100" enable-background="new 0 0 300 100" xml:space="preserve">
<g>
	<g>
		<path fill="#F26964" d="M131.2,70c-1-0.7-2.3-0.9-3.6-0.3c-1.3,0.7-2.9,0.1-3.4-1.3c-1.4-4.6-1.6-3.2,1.6-6.7c2-2.1,3.7-4.4,5-7
			c0.1-0.2,0.1-0.4,0.3-0.5c2.2-2.1,2.1-4.7,1.6-7.4c-0.4-2-0.1-4.1-0.2-6.1c-0.1-1-0.1-2-0.6-2.9c-0.8-1.6-1-3.4-1.5-5.1
			c-1-3.4-2.9-6.3-5.4-8.8c-2.6-2.7-5.7-4.9-9.4-5.9c-4-1.1-8.1-1.6-12,0c-3.8,1.5-7.2,3.7-8.8,7.8c-0.4,1-0.9,1.8-1.7,2.5
			c-1.1,0.9-1,2.5-2.1,3.5c0,0,0,0.1,0,0.1c0.3,0.7,0.8,1.2,1.1,1.9c0.5,1,0.6,2.2,0.7,3.3c0.2,3.3,0.2,6.7-0.3,10
			c-0.3,2.4-0.6,5.3-1.7,7.7c0,0,0,0.1-0.1,0.1v0c1.1,1.8,2.5,3.3,3.4,5.1c0.9,1.7,1.8,3.3,3.2,4.7c0.2,0.2,0.4,0.4,0.3,0.9
			c-0.6,2.1-1.2,4.3-1.8,6.4c-0.1,0.4-0.2,0.9-0.7,0.7c0,0,0,0,0,0h0c0,0,0,0,0-0.1c0-0.1,0-0.1-0.1-0.2c0,0,0,0,0,0
			c0,0-0.1,0-0.1,0c-0.2,0-0.5-0.1-0.7-0.1c-0.1,0.2-0.5-0.2-0.6-0.3c-0.9-0.9-2.2-1.1-3.3-1.9c0.1,0.3,0.2,0.5,0.2,0.6
			c0.4,1.2,0.6,2.5,0.5,3.7c0,0.3-0.1,0.6-0.2,0.8c-0.1,0.1-0.2,0.3-0.3,0.4c-0.1,0.4-0.4,0.7-0.7,1c-0.3,0.2-0.6,0.6-0.9,0.8
			c1.5-0.2,2.8,0.8,4.2,1.2c1.4,0.4,2.7,0.9,4.1,1.4c1.3,0.4,2.4-0.2,3.3-1.1c0.3-0.4,0.5-0.9,0.6-1.3c0.6-2.4,1.2-4.8,1.8-7.1
			c0.4-1.4,0.7-1.5,2.1-1c0.8,0.3,1.5,0.6,2.3,0.8c2.6,0.4,5.1,0.3,7.6-0.5c0.8-0.3,1.5-1.2,2.2-0.8c0.5,0.3,0.6,1.4,0.8,2.2
			c0.6,1.6,1.2,3.2,1.7,4.9c0.4,1.5,1.8,2.5,3.4,2.8c4.3,0.9,8.6-1.8,9-5.8C132.6,71.8,132.2,70.7,131.2,70z M117.5,60.1
			c-1.8,2-4.1,2.8-6.7,3c-1.7,0.1-3.5,0.1-5.1-0.2c-2-0.4-3.6-1.8-4.8-3.5c-1.1-1.6-1.9-3.5-3-5.1c-2.6-3.8-2.7-8.1-2.5-12.5
			c0.2-3.3,1.4-6.3,3-9.2c1.2-2.4,3-4.4,4.5-6.5c2.5-3.5,5.8-3.3,9.1-2.8c6.7,1.2,10.9,5.3,13,11.7c0.9,3,1.4,6.1,1.2,8.9
			c0,3.2-0.1,6-1.6,8.6c-0.6,1-1.4,1.8-2.1,2.7C120.7,56.7,119,58.4,117.5,60.1z"/>
		<path fill="#24AEE4" d="M56.2,73.4c0,1,0.1,2-0.1,2.9c-0.1,0.7-0.3,1.4-0.6,2c0.7,0.3,1.5,0.4,2.3,0.5c1-0.2,1.9-0.6,2.5-1.6
			c0.4-0.7,0.6-1.5,0.9-2.3c0.6-2,1.1-4,1.7-6c0.2-0.8,0.7-1,1.4-0.7c0.2,0.1,0.5,0.2,0.7,0.3c4,2.1,8,1.8,11.9-0.1
			c0.4-0.2,0.6-0.3,0.8,0.3c0.8,2.6,1.8,5.2,2.7,7.8c0.8,1.2,2,2,3.4,2.3c1.5,0,3.2,0.1,4.4-0.7c0.5-0.3,0.9-0.5,1.4-0.6
			c0.3-0.3,0.6-0.6,0.9-0.8c0.3-0.3,0.7-0.6,0.7-1c0.1-0.1,0.2-0.2,0.3-0.4c0.1-0.2,0.2-0.5,0.2-0.8c0.1-1.3-0.2-2.5-0.5-3.7
			c0-0.1-0.1-0.4-0.2-0.6c-0.1,0-0.2-0.1-0.2-0.2c-1.2-0.9-3-0.4-4.1,0.8c-0.3,0.4-0.6,0.8-1,1.4c-0.8-2.5-2-4.6-2.3-7.2
			c-0.1-0.7,0.2-1.2,0.7-1.6c2.6-2.1,5-4.4,6.8-7.3c0,0,0.1-0.1,0.1-0.2c0.2-0.4,0.3-0.6,0.5-0.9c0,0,0,0,0,0c0,0,0-0.1,0.1-0.1
			c1-2.3,1.3-5.2,1.7-7.6c0.4-3.3,0.5-6.6,0.3-9.9c-0.1-1.1-0.4-2.2-0.7-3.3c-0.2-0.7-1.1-1.9-1.1-2c0,0-3.4-6.1-6.1-8.6
			c-2-1.9-4.2-3.6-6.8-4.5c-3-1-6-2.1-9.2-1.8c-2.9,0.2-5.7,0.6-8.2,2.6c-2,0.9-5.7,4.7-6.1,5.4c-2.4,1.9-3.7,7-3.9,8
			c-0.2,2-0.8,3.9-1.1,5.9c-0.9,6.4-0.5,12.5,3.4,17.9c0.3,0.5,0.6,1,0.7,1.6c0.6,1.9,1.9,3.3,3.1,4.8c0.3,0.3,0.5,0.6,0.3,1
			c-0.6,1.3-1,2.7-1.4,4.3c0-0.1-0.1-0.2-0.1-0.2 M87,47.2c-0.1,3.5-1.8,6.1-4.4,8.2c-1.9,1.6-3.6,3.3-5.4,5c-1.5,1.4-3.5,2-5.5,2.2
			c-2.1,0.1-4.1,0-6.1-0.3c-1.5-0.2-2.8-1.1-3.6-2.2c-2.8-3.7-5.1-7.7-6.3-12.2c-0.3-1.3-0.1-2.6-0.2-3.9c0-7.3,3.4-13.1,8.1-18.3
			c1.2-1.3,2.4-2.6,4.2-2.8c4.6-0.5,8.8,0.4,12.5,3.4c2,1.6,3.6,3.7,4.9,5.9c1.2,2.1,1.4,4.4,1.8,6.6C87.4,41.7,87,44.4,87,47.2z"/>
		<path fill="#F6EC13" d="M56.3,79.4c-2.5,1.5-5.8,1-6.5,1.3c-0.1,0-0.6,0.3-1,0.4c-1.7,0.4-5,1.6-5,1.6c0,0-2.1,0.4-3.5,0.3h-0.1
			c-0.8,0-1.4-0.1-1.6-0.1c-1.8,0-3.6-0.1-5.4,0.1c-1,0.1-6.2-1.5-7.2-1.8c-2-0.6-4-1.3-5.8-2.5c-0.4-0.3-0.8-0.3-1.2-0.2
			c-2.7,1.3-5.5,1.9-8.4,2.2c-0.5,0.1-3.7,0.5-4.5-0.5C6.1,80.2,6,80.1,5.9,80c-0.1-0.1-1.4-2.2-1.6-3.1c-0.3-1.1,0.6-2.3,1.4-3
			c0.8-0.8,1.4-1.7,2.3-2.4c1.8-1.3,3.7-2.3,6-2.2c1.5,0,2.9-0.2,4.4,0.3c0.9,0.4,1.9-0.3,2.7-1c0.8-0.7,3.3-2.8,3.8-3.2
			c0.4-0.4,1-0.7,1.2-1.1c1.3-1.9,3.4-3.2,4.3-5.5c0.5-1.1,1.6-1.9,2.1-2.9c0.9-1.7,2-3.2,2.7-5c0.5-1.2,0.7-2.4,1.1-3.6
			c0.5-1.2,0.5-2.5,0.8-3.8c0.2-1.1-0.1-7.2-0.8-8.6c-1.3-2.5-4.8-4-7.9-3.6c-0.3,0-0.6,0-0.9,0c-0.2,0-2.2,0.6-3.1,0.9
			c-1.3,0.4-2.2,1.2-2.8,2.4c-0.9,1.8-1.8,3.6-2.7,5.3c-0.6,0.4-1,1.1-1.7,1.5c-2.2,1.4-3.9,1-5.1-1.4c-0.1-0.3-0.5-1-0.5-1.1
			c-0.1-1.8-0.2-3.7,0.5-5.4c0.5-1.5,1.2-3,2.1-4.3c0.6-0.9,1.2-1.7,2.1-2.4c2.1-1.7,4.7-2.7,7-4.3c2.2-1.5,9.2-1.1,10-0.9
			c1.7,0.5,3.2,0.7,4.2,1.2c1.2,0.7,5.1,5.1,5.9,6.9c1.5,3,2.7,6.1,2.7,9.5c0,2-0.1,4,0,6c0,1.4-0.3,2.8-0.7,4.1
			c-0.6,1.9-1.3,3.8-2,5.7c-0.8,1.4-1.7,2.7-2.5,4.1c-0.3,0.5-3.7,4.6-4.9,6.5c-1.2,0.8-1.8,2.1-2.8,3.1c-1.6,0.7-2.5,2.3-4,3.2
			c-0.2,0.1-0.2,0.6,0.2,0.8c0.3,0.2,0.7,0.4,1,0.4c2.6,0.1,5.2,0.3,7.7-0.6c0.7-0.2,1.4-0.2,2.1-0.5c3-1.1,5.2-3.4,7.3-5.6
			c1-1.1,2.1-2.2,3.1-3.3c1.7-1.8,5.2-1.3,6.4,0.9C57.5,65.8,61.1,74.3,56.3,79.4z"/>
		<path fill="none" d="M94.7,72.3c-0.1,0-0.2,0-0.3,0"/>
	</g>
	<g>
		<path d="M164,28.9c0,3.1-1,5.7-2.9,7.8c-1.9,2.1-4.3,3.2-7.1,3.2c-2.7,0-5.1-1.1-7-3.2c-2-2.2-2.9-4.8-2.9-7.8
			c0-3.1,1-5.7,2.9-7.8c1.9-2.1,4.4-3.1,7.2-3.1c2.8,0,5.1,1.1,7,3.2C163,23.2,164,25.8,164,28.9z M158.5,29.4
			c0-4.1-0.5-7.1-1.5-9.1c-0.6-1.3-1.6-1.9-3-1.9c-1.4,0-2.5,0.9-3.3,2.7c-0.8,1.8-1.2,4.2-1.2,7.2c0,4.4,0.7,7.6,2.2,9.8
			c0.6,0.9,1.5,1.4,2.7,1.4c1.4,0,2.3-0.6,2.9-1.9C158.1,35.5,158.5,32.8,158.5,29.4z"/>
		<path d="M177.1,28.2c0,0.6-0.2,1.1-0.5,1.5c-0.4,0.4-0.8,0.6-1.4,0.6c-1.1,0-1.7-0.5-1.7-1.5c0-0.3,0.1-0.7,0.4-1
			c0.1-0.1,0.1-0.2,0.1-0.2c0-0.2-0.1-0.3-0.4-0.3c-0.7,0-1.2,0.5-1.6,1.6c-0.2,0.6-0.3,2.1-0.3,4.5v2.2v2.7c0,0.6,0.3,0.9,0.8,0.9
			c0.3,0,0.7,0,1.2,0c0.2,0,0.3,0.1,0.3,0.2c0,0.2-0.1,0.2-0.3,0.2h-0.6c-0.2,0-1.1,0-2.7,0c0.1,0-0.4,0-1.4,0h-1.5h-1.2
			c-0.2,0-0.4,0-0.7,0c-0.2,0-0.3-0.1-0.3-0.2s0.1-0.2,0.4-0.2c0.8,0,1.4-0.1,1.5-0.3c0.2-0.2,0.3-0.6,0.3-1.4l0-8.3
			c0-0.7-0.1-1.2-0.3-1.4c-0.2-0.3-0.6-0.4-1.3-0.5c-0.5,0-0.8-0.1-0.9-0.1c-0.1,0-0.1-0.1-0.1-0.2c0-0.1,0.1-0.2,0.2-0.2
			c0.2,0,0.4,0,0.5,0h0.6c1.6,0,3.3-0.3,5.1-1c0.1,0.4,0.2,0.9,0.2,1.4v1.3c0.4-1,0.8-1.7,1.3-2.1c0.5-0.4,1.1-0.6,1.8-0.6
			c0.7,0,1.3,0.2,1.7,0.6C176.9,27,177.1,27.5,177.1,28.2z"/>
		<path d="M193,32.7c0,2.1-0.6,3.8-1.8,5.2c-1.2,1.4-2.7,2.1-4.5,2.1c-1.4,0-2.4-0.5-3.3-1.6v6.9c0,0.6,0,0.9,0.1,1.1
			c0.1,0.2,0.2,0.3,0.4,0.3c0.2,0,0.8,0.1,1.6,0.1c0.2,0,0.3,0.1,0.3,0.3c0,0.2-0.1,0.2-0.4,0.2c0,0-0.1,0-0.3,0c-0.2,0-0.4,0-0.5,0
			h-3.1c-0.2,0-0.5,0-0.9,0c-0.4,0-0.8,0-1.4,0h-1.5c-0.5,0-0.7-0.1-0.7-0.2c0-0.1,0.4-0.2,1.1-0.2c0.6,0,1-0.1,1-0.2
			c0.1-0.1,0.1-0.5,0.1-1.2V29.9c0-0.1,0-0.3,0-0.4c0-0.1,0-0.2,0-0.2v-0.9c0-0.4-0.1-0.7-0.5-0.8c-0.2-0.1-0.5-0.1-1-0.1h-0.6
			c-0.2,0-0.2-0.1-0.2-0.2c0-0.2,0.1-0.2,0.4-0.2c2.2-0.1,4.1-0.5,5.7-1.2c0.1,0.1,0.1,0.3,0.2,0.5l0.1,0.8l0,0.5
			c0.6-0.7,1.1-1.2,1.6-1.4c0.5-0.3,1.2-0.4,2.1-0.4c1.7,0,3.1,0.6,4.3,1.9C192.5,29.1,193,30.7,193,32.7z M188.5,32.5
			c0-3.9-0.9-5.9-2.6-5.9c-0.8,0-1.4,0.4-2,1.1c-0.2,0.3-0.4,0.9-0.4,1.8v6.1c0,1.3,0.2,2.2,0.5,2.7c0.5,0.7,1.1,1,1.9,1
			C187.6,39.3,188.5,37,188.5,32.5z"/>
		<path d="M210.2,39.5c0,0.1-0.1,0.2-0.3,0.2c0,0-0.2,0-0.6,0s-0.8,0-1.1,0h-0.8c-1.8,0-2.9,0-3.3-0.1h-0.5l-0.7,0.1
			c-0.3,0-0.4-0.1-0.4-0.2c0-0.1,0.1-0.2,0.2-0.2h0.7c0.5,0,0.7-0.1,0.8-0.4c0-0.2,0.1-1.2,0.1-3.1v-4.6c0-1.9-0.1-3-0.3-3.4
			c-0.3-0.5-0.8-0.8-1.5-0.8c-0.8,0-1.4,0.4-1.8,1.1c-0.2,0.4-0.3,1.1-0.3,2.3v4.9c0,1.5,0,2.3,0,2.5v0.4v0.7c0,0.3,0.4,0.5,1.3,0.5
			c0.2,0,0.3,0.1,0.3,0.2c0,0.1-0.1,0.2-0.4,0.2h-0.2c-0.2-0.1-0.4-0.1-0.7-0.1h-1.4l-1.7,0l-1.8,0.1h-0.9c-0.3,0-0.5-0.1-0.5-0.2
			c0-0.1,0-0.1,0.1-0.1c0,0,0.1,0,0.3,0c0.8,0,1.2,0,1.4-0.1c0.1-0.1,0.2-0.3,0.3-0.7c0-0.2,0-1.5,0-3.7V23.5c0-2.2,0-3.5-0.1-3.8
			c-0.1-0.3-0.5-0.5-1.3-0.5c-0.6,0-0.9-0.1-0.9-0.2c0-0.1,0.3-0.2,1-0.2c1.6-0.1,3.1-0.4,4.4-0.8c0.3-0.1,0.5-0.1,0.6-0.1
			c0.2,0,0.2,0.6,0.2,1.7v0.6c0,0.4,0,1,0,1.6c0,0.7,0,1.1,0,1.4V28c0.6-0.8,1.2-1.4,1.7-1.7c0.6-0.3,1.3-0.5,2.3-0.5
			c2,0,3.3,0.8,3.8,2.5c0.2,0.5,0.3,1.4,0.3,2.6v7.2c0,0.5,0.1,0.9,0.3,1c0.2,0.1,0.6,0.2,1.3,0.2C210.1,39.3,210.2,39.3,210.2,39.5
			z"/>
		<path d="M224.6,37.9c0,0.2-0.2,0.4-0.5,0.7c-0.9,0.8-2,1.2-3.3,1.2c-0.8,0-1.5-0.2-1.8-0.5c-0.4-0.4-0.6-1-0.8-1.9
			c-0.9,1.7-2.2,2.5-3.8,2.5c-0.9,0-1.6-0.3-2.1-0.8c-0.5-0.6-0.8-1.3-0.8-2.2c0-2.6,2.2-4.1,6.7-4.6v-0.6c0-2.1-0.1-3.3-0.2-3.8
			l0-0.2c-0.3-1-1-1.5-2.2-1.5c-0.7,0-1.2,0.2-1.6,0.6c-0.4,0.4-0.6,0.8-0.6,1.1c0,0.2,0.2,0.3,0.7,0.4c0.7,0.1,1.1,0.5,1.1,1.4
			c0,0.5-0.1,0.8-0.4,1.1c-0.3,0.3-0.7,0.4-1.2,0.4c-0.6,0-1.1-0.2-1.5-0.5c-0.4-0.4-0.6-0.8-0.6-1.4c0-0.9,0.4-1.7,1.3-2.4
			c0.9-0.7,2-1.1,3.5-1.1c2.1,0,3.6,0.4,4.5,1.1c0.7,0.6,1,1.7,1,3.3v5.3c0,1,0,1.6,0,1.8c0.1,0.9,0.4,1.3,0.9,1.3
			c0.3,0,0.8-0.2,1.3-0.7c0.1-0.1,0.2-0.2,0.2-0.2C224.5,37.8,224.6,37.8,224.6,37.9z M218.1,34.3v-1.5c-2,0.4-3,1.5-3,3.4
			c0,1.4,0.5,2.2,1.5,2.2c0.6,0,0.9-0.3,1.2-0.9C218,36.8,218.1,35.7,218.1,34.3z"/>
		<path d="M240.8,39.4c0,0.2-0.3,0.2-0.8,0.2c0,0-0.3,0-0.8,0c-0.5,0-1.2,0-2.2,0h-1h-2.7c-0.3,0-0.4-0.1-0.4-0.2
			c0-0.1,0.1-0.2,0.4-0.2h0.2c0.5,0,0.8-0.1,0.9-0.2c0.1-0.1,0.1-0.6,0.1-1.4v-6c0-2.2-0.1-3.5-0.4-4c-0.2-0.4-0.7-0.6-1.3-0.6
			c-0.6,0-1.1,0.2-1.5,0.6c-0.4,0.4-0.6,0.9-0.6,1.5v9.3c0,0.2,0.1,0.4,0.3,0.5s0.5,0.1,1,0.1c0.2,0,0.2,0.1,0.2,0.2
			s-0.1,0.2-0.2,0.2c-0.1,0-0.7,0-1.5,0c-0.9,0-1.6,0-2.2,0c-1.1,0-2.3,0.1-3.5,0.1c-0.2,0-0.4-0.1-0.4-0.2c0-0.2,0.3-0.2,0.9-0.2
			s1-0.1,1.1-0.4l0.1-0.4v-7.1c0-2,0-3-0.1-3.1c-0.1-0.3-0.3-0.5-0.8-0.5c-0.3,0-0.5,0-0.7,0h-0.3c-0.3,0-0.5-0.1-0.5-0.2
			c0-0.1,0.1-0.2,0.4-0.2c2.3-0.1,4.1-0.6,5.5-1.4c0.2-0.1,0.3-0.1,0.3-0.1c0.2,0,0.2,0.2,0.2,0.5c0,0.9,0,1.5,0,1.8
			c1.1-1.4,2.5-2.1,4.2-2.1c1.8,0,2.9,0.6,3.5,1.9c0.2,0.5,0.4,1.1,0.4,1.7c0.1,0.6,0.1,2,0.1,3.9v4.5c0,0.6,0.1,1,0.2,1.1
			c0.1,0.1,0.4,0.2,1,0.2S240.8,39.2,240.8,39.4z"/>
		<path d="M255,37.9c0,0.2-0.2,0.4-0.5,0.7c-0.9,0.8-2,1.2-3.3,1.2c-0.8,0-1.5-0.2-1.8-0.5c-0.4-0.4-0.6-1-0.8-1.9
			c-0.9,1.7-2.2,2.5-3.8,2.5c-0.9,0-1.6-0.3-2.1-0.8c-0.5-0.6-0.8-1.3-0.8-2.2c0-2.6,2.2-4.1,6.7-4.6v-0.6c0-2.1-0.1-3.3-0.2-3.8
			l0-0.2c-0.3-1-1-1.5-2.2-1.5c-0.7,0-1.2,0.2-1.6,0.6c-0.4,0.4-0.6,0.8-0.6,1.1c0,0.2,0.2,0.3,0.7,0.4c0.7,0.1,1.1,0.5,1.1,1.4
			c0,0.5-0.1,0.8-0.4,1.1c-0.3,0.3-0.7,0.4-1.2,0.4c-0.6,0-1.1-0.2-1.5-0.5c-0.4-0.4-0.6-0.8-0.6-1.4c0-0.9,0.4-1.7,1.3-2.4
			c0.9-0.7,2-1.1,3.5-1.1c2.1,0,3.6,0.4,4.5,1.1c0.7,0.6,1,1.7,1,3.3v5.3c0,1,0,1.6,0,1.8c0.1,0.9,0.4,1.3,0.9,1.3
			c0.3,0,0.8-0.2,1.3-0.7c0.1-0.1,0.2-0.2,0.2-0.2C255,37.8,255,37.8,255,37.9z M248.6,34.3v-1.5c-2,0.4-3,1.5-3,3.4
			c0,1.4,0.5,2.2,1.5,2.2c0.6,0,0.9-0.3,1.2-0.9C248.5,36.8,248.6,35.7,248.6,34.3z"/>
		<path d="M271.3,27.9c0,1.1-0.5,1.6-1.6,1.6c-1,0-1.4-0.4-1.4-1.3c0-0.1,0-0.3,0.1-0.5s0.1-0.3,0.1-0.4c0-0.3-0.2-0.5-0.6-0.5
			c-0.2,0-0.5,0.1-0.7,0.3s-0.3,0.5-0.3,0.7c0,0.1,0.1,0.3,0.2,0.7c0.4,0.8,0.6,1.5,0.6,2.1c0,1.5-0.7,2.8-2.1,3.9
			c-1.1,0.8-2.4,1.2-4,1.2c-0.7,0-1.4-0.1-2.3-0.4c-0.2-0.1-0.4-0.1-0.6-0.1c-0.4,0-0.7,0.1-1,0.4c-0.3,0.2-0.4,0.5-0.4,0.9
			c0,0.8,0.6,1.1,1.8,1.1c0.9,0,2.2-0.1,3.9-0.4c0.4-0.1,0.8-0.1,1.2-0.1c1.4,0,2.4,0.3,3.2,1c0.8,0.7,1.1,1.7,1.1,2.9
			c0,2-0.8,3.6-2.3,4.8c-1.6,1.2-3.6,1.8-6.3,1.8c-1.9,0-3.3-0.3-4.4-1S254,45.1,254,44c0-1.7,1.3-2.7,3.8-3.1
			c-1.5-0.6-2.3-1.5-2.3-2.7c0-1.6,1-2.8,2.9-3.4c-1.9-1-2.8-2.3-2.8-4.1c0-1.4,0.6-2.5,1.8-3.5c1.2-0.9,2.7-1.4,4.4-1.4
			c2,0,3.5,0.6,4.7,1.7c0.8-1,1.7-1.5,2.8-1.5C270.6,25.9,271.3,26.6,271.3,27.9z M267,42.8c0-1.5-0.9-2.3-2.7-2.3
			c-0.9,0-2,0.1-3.4,0.3c-1,0.2-1.8,0.2-2.3,0.2h-0.5c-0.6,0.7-0.9,1.6-0.9,2.6c0,2.2,1.4,3.3,4.3,3.3c1.5,0,2.8-0.4,3.8-1.2
			S267,44,267,42.8z M264,30.9c0-3.1-0.8-4.7-2.3-4.7c-1.5,0-2.3,1.4-2.3,4.3c0,1.7,0.2,2.9,0.6,3.7s1,1.1,1.9,1.1
			c0.8,0,1.4-0.3,1.6-0.9S264,32.5,264,30.9z"/>
		<path d="M282.9,35.8c0,0.5-0.3,1-0.8,1.8c-1.2,1.6-2.7,2.4-4.5,2.4c-2.1,0-3.8-0.7-5.1-2c-1.3-1.3-2-3-2-5.1c0-2,0.6-3.7,1.9-5
			c1.3-1.3,2.9-2,4.8-2c1.3,0,2.4,0.3,3.4,0.9c1,0.6,1.7,1.6,2,2.7c0.1,0.4,0.1,0.8,0.2,1.3c-0.5,0.1-2.4,0.1-5.7,0.1
			c-0.5,0-1.2,0-1.9,0.1c-0.1,0.7-0.1,1.4-0.1,1.9c0,2.4,0.5,4.1,1.5,5.1c0.6,0.6,1.3,0.9,2.2,0.9c0.7,0,1.4-0.2,2.1-0.7
			c0.7-0.5,1.2-1.1,1.5-1.9c0.2-0.4,0.3-0.6,0.4-0.6C282.9,35.6,282.9,35.7,282.9,35.8z M279.1,30.4c0-1.6-0.1-2.7-0.3-3.3
			c-0.2-0.6-0.7-0.9-1.3-0.9c-1.3,0-2,1.4-2.2,4.2c0.4,0,1.3,0,2.7,0C278.4,30.4,278.7,30.4,279.1,30.4z"/>
		<path d="M293.9,35.3c0,1.4-0.4,2.5-1.3,3.3c-0.8,0.9-1.9,1.3-3.3,1.3c-0.7,0-1.4-0.2-2.3-0.5c-0.7-0.3-1.2-0.4-1.4-0.4
			c-0.4,0-0.6,0.1-0.8,0.4c-0.1,0.3-0.2,0.4-0.3,0.4c-0.1,0-0.2-0.1-0.2-0.2c0-0.1,0-0.3,0-0.6c0-0.4,0.1-1.1,0.1-2c0,0,0-0.1,0-0.3
			s0-0.4,0-0.7v-0.5c0-0.2,0.1-0.3,0.2-0.3c0.1,0,0.2,0.2,0.3,0.5c0.2,1.1,0.7,2,1.6,2.7c0.9,0.7,1.8,1.1,2.9,1.1
			c0.7,0,1.2-0.2,1.6-0.6c0.4-0.4,0.6-1,0.6-1.6c0-0.5-0.2-1-0.6-1.4c-0.3-0.3-1.1-0.6-2.3-1c-1.5-0.5-2.7-1.1-3.3-1.9
			c-0.7-0.7-1-1.7-1-2.8c0-1.2,0.4-2.2,1.2-3.1c0.8-0.8,1.8-1.3,3-1.3c0.5,0,1.2,0.1,2.3,0.4c0.2,0,0.3,0.1,0.4,0.1
			c0.5,0,0.8-0.3,1-0.8c0-0.1,0.1-0.2,0.2-0.2c0.1,0,0.2,0.1,0.2,0.4l0,0.6c0,0.1,0,0.2,0,0.4c0,0.8,0.1,1.7,0.2,2.6v0.2
			c0,0.2-0.1,0.2-0.2,0.2c-0.1,0-0.2-0.1-0.2-0.3c-0.6-2.1-1.8-3.1-3.6-3.1c-0.7,0-1.2,0.2-1.7,0.6c-0.4,0.4-0.7,0.8-0.7,1.4
			c0,0.5,0.2,1,0.6,1.3c0.4,0.3,1.1,0.7,2.2,1c1.9,0.7,3.1,1.3,3.8,2C293.5,33.2,293.9,34.1,293.9,35.3z"/>
		<path d="M171.9,55.5c0,0.2-0.2,0.3-0.5,0.3c-0.9,0-1.5,0.1-1.8,0.3c-0.2,0.2-0.5,0.7-0.8,1.6c-0.2,0.5-0.5,1.2-0.8,2.2
			c-0.3,0.8-0.7,2-1.3,3.7c-0.3,0.8-0.7,2-1.3,3.5l-1.5,4.2c-1.1,3-1.6,4.7-1.8,5.2c-0.1,0.3-0.2,0.4-0.3,0.4
			c-0.1,0-0.2-0.1-0.3-0.3s-0.3-0.9-0.7-2.1c-0.5-1.6-1.3-3.6-2.3-6l-1.1-2.5c-2.1,4.4-3.5,7.9-4.4,10.5c-0.1,0.3-0.2,0.4-0.3,0.4
			c-0.1,0-0.3-0.5-0.8-1.6l-3.8-9.8c-0.9-2.5-2.1-5.4-3.5-8.8c-0.1-0.4-0.4-0.6-0.7-0.7c-0.2-0.1-0.5-0.1-1.1-0.1
			c-0.5,0-0.8-0.1-0.8-0.3c0-0.2,0.1-0.2,0.4-0.2c0,0,0.3,0,1,0c0.7,0,1.3,0,1.9,0h1.2h3.1c0.1,0,0.3,0,0.5,0c0.2,0,0.3,0,0.4,0
			c0.3,0,0.4,0.1,0.4,0.3c0,0.2-0.3,0.3-1,0.2c-0.3,0-0.5,0.1-0.5,0.3c0,0.1,0,0.2,0.1,0.3c0.5,1.2,1.1,3.1,2.1,5.6l3.2,8.2l2.2-4.9
			c-0.3-0.9-0.9-2.5-1.8-4.8c-0.2-0.4-0.4-0.9-0.7-1.7c-0.1-0.2-0.2-0.5-0.3-0.9c-0.4-0.9-0.6-1.5-0.9-1.7c-0.2-0.2-0.7-0.3-1.4-0.3
			c-0.2,0-0.3-0.1-0.3-0.3c0-0.2,0.2-0.3,0.6-0.3c-0.1,0,0,0,0.3,0s0.7,0,1.4,0h10.8c0.4,0,0.6,0.1,0.6,0.3c0,0.2-0.2,0.2-0.5,0.2
			c-1.5,0-2.3,0.2-2.5,0.7c-0.3,0.6-1.1,2.1-2.2,4.7c0.7,1.8,1.9,4.8,3.4,8.8c0.3-0.8,0.7-1.8,1.1-2.8c0.3-0.9,0.9-2.3,1.6-4.4
			c0.5-1.4,0.9-2.5,1.2-3.4c0.6-1.5,0.8-2.4,0.8-2.8c0-0.4-0.2-0.7-0.6-0.8c-0.1,0-0.5-0.1-1.1-0.1c-0.3,0-0.5-0.1-0.5-0.2
			c0-0.2,0.2-0.2,0.5-0.2h2.4c1,0,1.8,0,2.4,0h0.2C171.8,55.3,171.9,55.4,171.9,55.5z M161.3,56.6c0-0.6-0.5-0.8-1.5-0.8
			c-1,0-1.5,0.2-1.5,0.6c0,0.5,0.5,1.8,1.5,3.9C160.8,58.2,161.3,57,161.3,56.6z"/>
		<path d="M185.7,70c0,2.2-0.9,4-2.6,5.3c-1.4,1.1-2.8,1.6-4.5,1.6c-1.9,0-3.6-0.7-5-2.1s-2.1-3-2.1-4.9c0-2,0.7-3.7,2.1-5
			c1.4-1.4,3.1-2.1,5.1-2.1c1.9,0,3.6,0.7,4.9,2.1C185,66.4,185.7,68.1,185.7,70z M181.1,70.1c0-2.5-0.2-4.3-0.5-5.2
			c-0.4-1-1-1.6-1.9-1.6c-0.8,0-1.4,0.5-1.9,1.6c-0.4,1.1-0.7,2.6-0.7,4.5c0,2.7,0.3,4.6,0.8,5.7c0.4,0.9,1,1.4,1.8,1.4
			c1,0,1.6-0.6,1.9-1.7C180.9,73.7,181.1,72.2,181.1,70.1z"/>
		<path d="M198.6,65.2c0,0.6-0.2,1.1-0.5,1.5c-0.4,0.4-0.8,0.6-1.4,0.6c-1.1,0-1.7-0.5-1.7-1.5c0-0.3,0.1-0.7,0.4-1
			c0.1-0.1,0.1-0.2,0.1-0.2c0-0.2-0.1-0.3-0.4-0.3c-0.7,0-1.2,0.5-1.6,1.6c-0.2,0.6-0.3,2.1-0.3,4.5v2.2v2.7c0,0.6,0.3,0.9,0.8,0.9
			c0.3,0,0.7,0,1.2,0c0.2,0,0.3,0.1,0.3,0.2c0,0.2-0.1,0.2-0.3,0.2h-0.6c-0.2,0-1.1,0-2.7,0c0.1,0-0.4,0-1.4,0h-1.5H188
			c-0.2,0-0.4,0-0.7,0c-0.2,0-0.3-0.1-0.3-0.2c0-0.1,0.1-0.2,0.4-0.2c0.8,0,1.4-0.1,1.5-0.3c0.2-0.2,0.3-0.6,0.3-1.4l0-8.3
			c0-0.7-0.1-1.2-0.3-1.4c-0.2-0.3-0.6-0.4-1.3-0.5c-0.5,0-0.8-0.1-0.9-0.1s-0.1-0.1-0.1-0.2c0-0.1,0.1-0.2,0.2-0.2
			c0.2,0,0.4,0,0.5,0h0.6c1.6,0,3.3-0.3,5.1-1c0.1,0.4,0.2,0.9,0.2,1.4v1.3c0.4-1,0.8-1.7,1.3-2.1c0.5-0.4,1.1-0.6,1.8-0.6
			c0.7,0,1.3,0.2,1.7,0.6C198.4,64,198.6,64.5,198.6,65.2z"/>
		<path d="M207.5,76.4c0,0.2-0.4,0.2-1.2,0.2c-0.2,0-0.8,0-1.7-0.1c-0.5,0-1,0-1.4,0c-0.5,0-1.3,0-2.5,0.1l-0.9,0
			c-0.5,0-0.7-0.1-0.7-0.2s0.2-0.2,0.7-0.2c0.7,0,1.1-0.1,1.2-0.2c0.1-0.2,0.2-0.8,0.2-1.8V57.9c0-0.7-0.1-1.1-0.2-1.2
			c-0.1-0.1-0.6-0.2-1.3-0.2c-0.5,0-0.8-0.1-0.8-0.2c0-0.2,0.3-0.3,0.8-0.3c2.3-0.1,4.2-0.4,5.6-1c0,0.6,0,4.2,0,10.8v7.7
			c0,1.4,0,2.2,0.1,2.5c0.1,0.2,0.3,0.3,0.8,0.3h0.9C207.4,76.2,207.5,76.2,207.5,76.4z"/>
		<path d="M223.5,76c0,0.1-0.2,0.2-0.6,0.2h-1.4c-1,0-2.1,0.2-3.2,0.7c-0.1,0-0.2,0.1-0.2,0.1c-0.2,0-0.3-0.2-0.3-0.6
			c0-0.2,0-0.4-0.1-0.8c-0.8,0.9-1.9,1.3-3.3,1.3c-1.8,0-3.3-0.7-4.5-2c-1.2-1.3-1.8-3-1.8-5.1c0-2.1,0.6-3.8,1.8-5.1
			c1.2-1.3,2.8-1.9,4.7-1.9c1.3,0,2.3,0.5,3.1,1.4V60c0-1.8-0.1-2.9-0.2-3.3c-0.2-0.3-0.7-0.5-1.6-0.5c-0.5,0-0.8-0.1-0.8-0.2
			s0.1-0.2,0.4-0.2c1.9,0,3.7-0.3,5.4-0.8c0.2-0.1,0.4-0.1,0.5-0.1c0.2,0,0.3,0.2,0.3,0.7v1.5v3v14.7c0,0.3,0.1,0.6,0.2,0.7
			c0.1,0.2,0.5,0.3,1.1,0.2C223.3,75.7,223.5,75.8,223.5,76z M217.8,73.2v-6.7c0-0.9-0.2-1.6-0.5-2.1c-0.4-0.6-0.9-0.9-1.6-0.9
			c-2,0-3,2.2-3,6.6c0,2,0.3,3.5,0.8,4.5c0.5,1.1,1.2,1.6,2.1,1.6c0.5,0,1-0.2,1.5-0.7C217.6,75.1,217.8,74.3,217.8,73.2z"/>
		<path d="M243.2,63.4c0,0.1-0.2,0.2-0.7,0.2c-0.4,0-0.7,0.1-0.8,0.2c-0.1,0.1-0.3,0.4-0.5,0.8c-0.4,0.9-1.1,2.8-2,5.6
			c-1,2.8-1.7,4.9-2.1,6.3c-0.1,0.4-0.2,0.6-0.4,0.6c-0.1,0-0.2-0.1-0.3-0.3c-0.1-0.3-0.3-0.8-0.6-1.4c-0.2-0.4-0.8-2-1.9-4.8
			c-0.1-0.4-0.4-1.1-0.9-2.2c-0.3,0.7-0.7,2-1.4,3.8c-0.4,1.2-0.9,2.6-1.5,4.3c-0.1,0.4-0.3,0.6-0.5,0.6c-0.1,0-0.2-0.2-0.3-0.5
			c0-0.1-0.4-1.1-1.1-3.1c-1.2-3.1-2.3-6-3.5-8.7c-0.2-0.5-0.4-0.8-0.5-0.9c-0.2-0.2-0.4-0.3-0.8-0.3c-0.6,0-0.9-0.1-0.9-0.2
			c0-0.2,0.1-0.2,0.4-0.2h0.3c0.4,0,0.8,0,1.2,0c0.5,0,0.8,0,1,0c1.7,0,2.9,0,3.6-0.1c0.3,0,0.7,0,1,0c0.4,0,0.6,0.1,0.6,0.2
			s-0.3,0.2-0.9,0.2s-0.9,0.2-0.9,0.5c0,0.2,0.5,1.6,1.4,4.2c0.4,1.1,0.8,2.2,1.1,3.1c0.2-0.5,0.5-1.3,1-2.5l1.4-3.9
			c0.4-1.2,0.8-1.8,1-1.8c0.2,0,0.5,0.6,1,1.8c0.2,0.5,0.5,1.3,1,2.6l1,2.4c0.1,0.2,0.3,0.6,0.5,1.2c1.6-4.1,2.3-6.5,2.3-7.1
			c0-0.3-0.2-0.4-0.6-0.5c0,0-0.3,0-0.9,0c-0.3,0-0.5-0.1-0.5-0.2c0-0.1,0.1-0.2,0.3-0.2h1.5h1.9c0.1,0,0.3,0,0.5,0h0.2
			C243.1,63.2,243.2,63.3,243.2,63.4z"/>
		<path d="M250.9,76.4c0,0.1-0.1,0.2-0.3,0.2h-4.1h-2.9c-0.1,0-0.3,0-0.5,0c-0.2,0-0.3,0-0.3,0c-0.2,0-0.4-0.1-0.4-0.2
			c0-0.1,0.2-0.2,0.7-0.2c0.7,0,1.1-0.1,1.2-0.2c0.1-0.1,0.2-0.5,0.2-1.2v-8.9c0-0.8-0.1-1.3-0.2-1.4s-0.5-0.2-1.2-0.2
			c-0.4,0-0.7,0-0.8,0c-0.1,0-0.1-0.1-0.1-0.2c0-0.1,0.2-0.2,0.5-0.2c2.3,0,4.2-0.4,5.8-1c0,0.2,0.1,0.9,0.2,2v3.9v5.8
			c0,0.8,0.1,1.3,0.2,1.5c0.2,0.1,0.7,0.2,1.6,0.2C250.8,76.2,250.9,76.3,250.9,76.4z M248.7,56.8c0,0.6-0.2,1.1-0.6,1.5
			c-0.4,0.4-0.9,0.6-1.5,0.6c-0.6,0-1.1-0.2-1.5-0.6c-0.4-0.4-0.6-0.9-0.6-1.5c0-0.6,0.2-1,0.6-1.4s0.9-0.6,1.5-0.6
			c0.6,0,1,0.2,1.4,0.6C248.5,55.8,248.7,56.3,248.7,56.8z"/>
		<path d="M266.9,76c0,0.1-0.2,0.2-0.6,0.2h-1.4c-1,0-2.1,0.2-3.2,0.7c-0.1,0-0.2,0.1-0.2,0.1c-0.2,0-0.3-0.2-0.3-0.6
			c0-0.2,0-0.4-0.1-0.8c-0.8,0.9-1.9,1.3-3.3,1.3c-1.8,0-3.3-0.7-4.5-2c-1.2-1.3-1.8-3-1.8-5.1c0-2.1,0.6-3.8,1.8-5.1
			c1.2-1.3,2.8-1.9,4.7-1.9c1.3,0,2.3,0.5,3.1,1.4V60c0-1.8-0.1-2.9-0.2-3.3c-0.2-0.3-0.7-0.5-1.6-0.5c-0.5,0-0.8-0.1-0.8-0.2
			s0.1-0.2,0.4-0.2c1.9,0,3.7-0.3,5.4-0.8c0.2-0.1,0.4-0.1,0.5-0.1c0.2,0,0.3,0.2,0.3,0.7v1.5v3v14.7c0,0.3,0.1,0.6,0.2,0.7
			c0.1,0.2,0.5,0.3,1.1,0.2C266.8,75.7,266.9,75.8,266.9,76z M261.3,73.2v-6.7c0-0.9-0.2-1.6-0.5-2.1c-0.4-0.6-0.9-0.9-1.6-0.9
			c-2,0-3,2.2-3,6.6c0,2,0.3,3.5,0.8,4.5c0.5,1.1,1.2,1.6,2.1,1.6c0.5,0,1-0.2,1.5-0.7C261,75.1,261.3,74.3,261.3,73.2z"/>
		<path d="M280.2,72.8c0,0.5-0.3,1-0.8,1.8c-1.2,1.6-2.7,2.4-4.5,2.4c-2.1,0-3.8-0.7-5.1-2c-1.3-1.3-2-3-2-5.1c0-2,0.6-3.7,1.9-5
			s2.9-2,4.8-2c1.3,0,2.4,0.3,3.4,0.9c1,0.6,1.7,1.6,2,2.7c0.1,0.4,0.1,0.8,0.2,1.3c-0.5,0.1-2.4,0.1-5.7,0.1c-0.5,0-1.2,0-1.9,0.1
			c-0.1,0.7-0.1,1.4-0.1,1.9c0,2.4,0.5,4.1,1.5,5.1c0.6,0.6,1.3,0.9,2.2,0.9c0.7,0,1.4-0.2,2.1-0.7c0.7-0.5,1.2-1.1,1.5-1.9
			c0.2-0.4,0.3-0.6,0.4-0.6C280.2,72.6,280.2,72.7,280.2,72.8z M276.3,67.4c0-1.6-0.1-2.7-0.3-3.3c-0.2-0.6-0.7-0.9-1.3-0.9
			c-1.3,0-2,1.4-2.2,4.2c0.4,0,1.3,0,2.7,0C275.6,67.4,276,67.4,276.3,67.4z"/>
	</g>
</g>
<g>
</g>
<g>
</g>
<g>
</g>
<g>
</g>
<g>
</g>
<g>
</g>
</svg>
